<svg width="97" height="96" xmlns="http://www.w3.org/2000/svg" xmlns:xlink="http://www.w3.org/1999/xlink" xml:space="preserve" overflow="hidden"><defs><clipPath id="clip0"><rect x="724" y="384" width="97" height="96"/></clipPath><clipPath id="clip1"><rect x="725" y="384" width="96" height="96"/></clipPath><clipPath id="clip2"><rect x="725" y="384" width="96" height="96"/></clipPath><clipPath id="clip3"><rect x="725" y="384" width="96" height="96"/></clipPath></defs><g clip-path="url(#clip0)" transform="translate(-724 -384)"><g clip-path="url(#clip1)"><g clip-path="url(#clip2)"><g clip-path="url(#clip3)"><path d="M807 467.6 787 448.6 807 429.6 807 467.6ZM742.2 470 762 451.3 763.4 450C768.8 444.9 777.3 444.9 782.7 450L784.1 451.3 803.8 470 742.2 470ZM739 429.5 759 448.5 739 467.5 739 429.5ZM753 404 793 404 793 437.3 784 445.9C777.5 440.9 768.5 440.9 762 445.9L753 437.3 753 404ZM799 406.7 799 398 785 398 773 388 761 398 747 398 747 406.8 733 420.1 733 476 813 476 813 420.1 799 406.7Z" stroke="#002060" stroke-width="1" stroke-linecap="butt" stroke-linejoin="miter" stroke-miterlimit="4" stroke-opacity="1" fill="#000000" fill-rule="nonzero" fill-opacity="1"/><path d="M773 426.3C771.2 426.3 769.8 424.8 769.8 423.1 769.8 421.3 771.3 419.9 773 419.9 774.8 419.9 776.2 421.3 776.2 423.1 776.2 424.9 774.8 426.3 773 426.3ZM773 436C775.3 436 777.5 435.4 779.5 434.4 780.3 433.9 780.6 432.9 780.2 432.1 779.7 431.3 778.7 431 777.9 431.4 776.4 432.2 774.7 432.6 773 432.6 767.7 432.6 763.3 428.2 763.4 422.9 763.4 417.6 767.8 413.2 773.1 413.2 778.4 413.2 782.8 417.5 782.8 422.9L782.8 426.1C781 426.1 779.6 424.7 779.6 422.9 779.6 419.7 777.4 417 774.3 416.4 771.2 415.8 768.1 417.5 767 420.4 765.9 423.3 767 426.7 769.7 428.3 772.4 429.9 775.9 429.4 778 427 779.2 428.4 781 429.2 782.9 429.2 784.7 429.2 786.1 427.8 786.1 426L786.1 422.8C786.1 415.6 780.3 409.8 773.1 409.8 765.9 409.8 760.1 415.6 760.1 422.8 760 430.1 765.8 435.9 773 436Z" stroke="#002060" stroke-width="1" stroke-linecap="butt" stroke-linejoin="miter" stroke-miterlimit="4" stroke-opacity="1" fill="#000000" fill-rule="nonzero" fill-opacity="1"/></g></g></g></g></svg>