<svg width="124" height="124" xmlns="http://www.w3.org/2000/svg" xmlns:xlink="http://www.w3.org/1999/xlink" xml:space="preserve" overflow="hidden"><defs><clipPath id="clip0"><rect x="684" y="316" width="124" height="124"/></clipPath><clipPath id="clip1"><rect x="684" y="317" width="123" height="123"/></clipPath><clipPath id="clip2"><rect x="684" y="317" width="123" height="123"/></clipPath><clipPath id="clip3"><rect x="684" y="317" width="123" height="123"/></clipPath></defs><g clip-path="url(#clip0)" transform="translate(-684 -316)"><g clip-path="url(#clip1)"><g clip-path="url(#clip2)"><g clip-path="url(#clip3)"><path d="M761.062 392.516C759.58 391.007 757.156 390.986 755.648 392.468 755.632 392.483 755.616 392.499 755.6 392.516L749.088 399.3C748.348 400.005 747.184 400.005 746.444 399.3L724.593 377.536C723.887 376.797 723.887 375.633 724.593 374.893L731.375 368.196C732.884 366.714 732.905 364.291 731.424 362.782 731.408 362.766 731.392 362.75 731.375 362.734L719.219 350.662C718.521 349.95 717.573 349.539 716.576 349.517 715.553 349.538 714.577 349.948 713.845 350.662L706.886 357.623C705.132 359.245 704.087 361.493 703.979 363.88 703.855 367.797 704.545 371.697 706.005 375.334 707.455 378.586 709.225 381.686 711.291 384.586 718.471 395.405 727.578 404.813 738.158 412.34 739.92 413.648 741.774 414.826 743.706 415.865 748.083 418.167 752.874 419.575 757.8 420.006 758.082 420.029 758.365 420.039 758.646 420.039 761.734 420.03 764.681 418.742 766.785 416.481L773.128 410.138C773.857 409.416 774.269 408.433 774.273 407.406 774.301 406.391 773.92 405.407 773.216 404.675ZM715.657 352.474C715.908 352.24 716.233 352.1 716.576 352.079 716.895 352.104 717.194 352.247 717.414 352.48L729.563 364.545C730.071 365.026 730.093 365.828 729.612 366.336 729.6 366.349 729.588 366.361 729.575 366.373L727.375 368.551 713.482 354.652ZM764.975 414.67 764.942 414.703 764.908 414.738C763.291 416.479 761.024 417.471 758.647 417.477 758.433 417.477 758.218 417.469 757.981 417.45 753.406 417.047 748.957 415.736 744.894 413.593 743.084 412.619 741.346 411.515 739.695 410.29L739.666 410.27 739.638 410.249C729.296 402.898 720.398 393.701 713.393 383.12 711.442 380.384 709.768 377.46 708.396 374.392 707.088 371.105 706.457 367.587 706.542 364.05L706.542 364.012 706.542 363.974C706.629 362.258 707.387 360.644 708.654 359.481L708.678 359.458 708.701 359.435 711.675 356.462 725.552 370.345 722.78 373.082C721.075 374.824 721.075 377.609 722.78 379.352L744.626 401.112C746.381 402.832 749.195 402.816 750.93 401.076L753.553 398.345 767.426 412.22ZM771.317 408.326 769.238 410.403 755.327 396.498 757.416 394.327C757.898 393.82 758.7 393.799 759.207 394.281 759.223 394.296 759.238 394.312 759.253 394.327L771.409 406.488C771.85 407.034 771.812 407.824 771.321 408.326Z" stroke="#002060" stroke-width="1.28128" stroke-linecap="butt" stroke-linejoin="miter" stroke-miterlimit="4" stroke-opacity="1" fill="#002060" fill-rule="nonzero" fill-opacity="1"/><path d="M775.866 350.001C767.658 341.74 756.411 337.222 744.77 337.509L744.822 340.071C766.975 339.596 785.32 357.169 785.795 379.322 785.808 379.897 785.808 380.471 785.795 381.046L788.358 381.098C788.646 369.456 784.128 358.208 775.866 350.001Z" stroke="#002060" stroke-width="1.28128" stroke-linecap="butt" stroke-linejoin="miter" stroke-miterlimit="4" stroke-opacity="1" fill="#002060" fill-rule="nonzero" fill-opacity="1"/><path d="M744.759 350.916 744.838 353.478C759.593 353.016 771.929 364.602 772.392 379.357 772.41 379.915 772.41 380.474 772.392 381.032L774.955 381.11C775.459 364.939 762.759 351.421 746.588 350.916 745.979 350.897 745.369 350.897 744.759 350.916Z" stroke="#002060" stroke-width="1.28128" stroke-linecap="butt" stroke-linejoin="miter" stroke-miterlimit="4" stroke-opacity="1" fill="#002060" fill-rule="nonzero" fill-opacity="1"/><path d="M761.523 381.146C762.059 372.403 755.406 364.881 746.662 364.345 746.017 364.305 745.369 364.305 744.724 364.345L744.873 366.907C752.205 366.455 758.515 372.031 758.967 379.362 759.001 379.908 759.001 380.455 758.967 381.001Z" stroke="#002060" stroke-width="1.28128" stroke-linecap="butt" stroke-linejoin="miter" stroke-miterlimit="4" stroke-opacity="1" fill="#002060" fill-rule="nonzero" fill-opacity="1"/></g></g></g></g></svg>